# xmcd
# 
# Track frame offsets:
#     150
#     16890
#     33047
#     55611
#     77987
#     108679
#     129436
#     155384
#     176424
#     200338
#     222416
#     239114
#     258338
#     280522
#     310347
# 
# Disc length: 4469
# 
# Revision: 4
# Processed by: cddbd v1.5.2PL0 Copyright (c) Steve Scherf et al.
# Submitted via: fre:ac v1.0.27
# 
DISCID=c911730f
DTITLE=???? - Song Book "since 1997?2001"
DYEAR=2002
DGENRE=Pop
TTITLE0=??
TTITLE1=??????
TTITLE2=??
TTITLE3=???
TTITLE4=Such a Lovely Place
TTITLE5=HAPPY DANCE
TTITLE6=STRIPE!
TTITLE7=Hungry Spider
TTITLE8=Name Of Love
TTITLE9=Cicada
TTITLE10=????
TTITLE11=David
TTITLE12=?
TTITLE13=??
TTITLE14=?? ????????????
EXTD=YEAR: 2002
EXTT0=
EXTT1=
EXTT2=
EXTT3=
EXTT4=
EXTT5=
EXTT6=
EXTT7=
EXTT8=
EXTT9=
EXTT10=
EXTT11=
EXTT12=
EXTT13=
EXTT14=
PLAYORDER=
